<svg id="Layer_2" data-name="Layer 2" xmlns="http://www.w3.org/2000/svg" viewBox="0 0 939.2 321.24"><defs><style>.cls-1{fill:#d80a0e;}</style></defs><circle class="cls-1" cx="10.32" cy="10.32" r="10.32"/><circle class="cls-1" cx="40.38" cy="10.32" r="10.32"/><circle class="cls-1" cx="70.44" cy="10.32" r="10.32"/><circle class="cls-1" cx="100.5" cy="10.32" r="10.32"/><circle class="cls-1" cx="130.56" cy="10.32" r="10.32"/><circle class="cls-1" cx="160.62" cy="10.32" r="10.32"/><circle class="cls-1" cx="190.68" cy="10.32" r="10.32"/><circle class="cls-1" cx="220.74" cy="10.32" r="10.32"/><circle class="cls-1" cx="250.8" cy="10.32" r="10.32"/><circle class="cls-1" cx="10.32" cy="310.92" r="10.32"/><circle class="cls-1" cx="40.38" cy="310.92" r="10.32"/><circle class="cls-1" cx="70.44" cy="310.92" r="10.32"/><circle class="cls-1" cx="100.5" cy="310.92" r="10.32"/><circle class="cls-1" cx="130.56" cy="310.92" r="10.32"/><circle class="cls-1" cx="160.62" cy="310.92" r="10.32"/><circle class="cls-1" cx="190.68" cy="310.92" r="10.32"/><circle class="cls-1" cx="220.74" cy="310.92" r="10.32"/><circle class="cls-1" cx="250.8" cy="310.92" r="10.32"/><circle class="cls-1" cx="10.32" cy="35.37" r="10.32"/><circle class="cls-1" cx="40.38" cy="35.37" r="10.32"/><circle class="cls-1" cx="70.44" cy="35.37" r="10.32"/><circle class="cls-1" cx="100.5" cy="35.37" r="10.32"/><circle class="cls-1" cx="130.56" cy="35.37" r="10.32"/><circle class="cls-1" cx="160.62" cy="35.37" r="10.32"/><circle class="cls-1" cx="190.68" cy="35.37" r="10.32"/><circle class="cls-1" cx="220.74" cy="35.37" r="10.32"/><circle class="cls-1" cx="250.8" cy="35.37" r="10.32"/><circle class="cls-1" cx="280.86" cy="35.37" r="10.32"/><circle class="cls-1" cx="10.32" cy="260.82" r="10.32"/><circle class="cls-1" cx="40.38" cy="260.82" r="10.32"/><circle class="cls-1" cx="70.44" cy="260.82" r="10.32"/><circle class="cls-1" cx="100.5" cy="260.82" r="10.32"/><circle class="cls-1" cx="130.56" cy="260.82" r="10.32"/><circle class="cls-1" cx="160.62" cy="260.82" r="10.32"/><circle class="cls-1" cx="190.68" cy="260.82" r="10.32"/><circle class="cls-1" cx="220.74" cy="260.82" r="10.32"/><circle class="cls-1" cx="250.8" cy="260.82" r="10.32"/><circle class="cls-1" cx="280.86" cy="260.82" r="10.32"/><circle class="cls-1" cx="10.32" cy="285.87" r="10.32"/><circle class="cls-1" cx="40.38" cy="285.87" r="10.32"/><circle class="cls-1" cx="70.44" cy="285.87" r="10.32"/><circle class="cls-1" cx="100.5" cy="285.87" r="10.32"/><circle class="cls-1" cx="130.56" cy="285.87" r="10.32"/><circle class="cls-1" cx="160.62" cy="285.87" r="10.32"/><circle class="cls-1" cx="190.68" cy="285.87" r="10.32"/><circle class="cls-1" cx="220.74" cy="285.87" r="10.32"/><circle class="cls-1" cx="250.8" cy="285.87" r="10.32"/><circle class="cls-1" cx="280.86" cy="285.87" r="10.32"/><circle class="cls-1" cx="10.32" cy="60.42" r="10.32"/><circle class="cls-1" cx="40.38" cy="60.42" r="10.32"/><circle class="cls-1" cx="70.44" cy="60.42" r="10.32"/><circle class="cls-1" cx="100.5" cy="60.42" r="10.32"/><circle class="cls-1" cx="130.56" cy="60.42" r="10.32"/><circle class="cls-1" cx="160.62" cy="60.42" r="10.32"/><circle class="cls-1" cx="190.68" cy="60.42" r="10.32"/><circle class="cls-1" cx="220.74" cy="60.42" r="10.32"/><circle class="cls-1" cx="220.74" cy="85.47" r="10.32"/><circle class="cls-1" cx="220.74" cy="110.52" r="10.32"/><circle class="cls-1" cx="220.74" cy="135.57" r="10.32"/><circle class="cls-1" cx="220.74" cy="160.62" r="10.32"/><circle class="cls-1" cx="220.74" cy="185.67" r="10.32"/><circle class="cls-1" cx="220.74" cy="210.72" r="10.32"/><circle class="cls-1" cx="220.74" cy="235.77" r="10.32"/><circle class="cls-1" cx="250.8" cy="60.42" r="10.32"/><circle class="cls-1" cx="280.86" cy="60.42" r="10.32"/><circle class="cls-1" cx="250.8" cy="85.47" r="10.32"/><circle class="cls-1" cx="280.86" cy="85.47" r="10.32"/><circle class="cls-1" cx="250.8" cy="110.52" r="10.32"/><circle class="cls-1" cx="280.86" cy="110.52" r="10.32"/><circle class="cls-1" cx="250.8" cy="135.57" r="10.32"/><circle class="cls-1" cx="280.86" cy="135.57" r="10.32"/><circle class="cls-1" cx="250.8" cy="160.62" r="10.32"/><circle class="cls-1" cx="280.86" cy="160.62" r="10.32"/><circle class="cls-1" cx="250.8" cy="185.67" r="10.32"/><circle class="cls-1" cx="280.86" cy="185.67" r="10.32"/><circle class="cls-1" cx="250.8" cy="210.72" r="10.32"/><circle class="cls-1" cx="280.86" cy="210.72" r="10.32"/><circle class="cls-1" cx="250.8" cy="235.77" r="10.32"/><circle class="cls-1" cx="40.38" cy="85.47" r="10.32"/><circle class="cls-1" cx="40.38" cy="110.52" r="10.32"/><circle class="cls-1" cx="40.38" cy="135.57" r="10.32"/><circle class="cls-1" cx="40.38" cy="160.62" r="10.32"/><circle class="cls-1" cx="40.38" cy="185.67" r="10.32"/><circle class="cls-1" cx="40.38" cy="210.72" r="10.32"/><circle class="cls-1" cx="40.38" cy="235.77" r="10.32"/><circle class="cls-1" cx="70.44" cy="85.47" r="10.32"/><circle class="cls-1" cx="70.44" cy="110.52" r="10.32"/><circle class="cls-1" cx="70.44" cy="135.57" r="10.32"/><circle class="cls-1" cx="70.44" cy="160.62" r="10.32"/><circle class="cls-1" cx="70.44" cy="185.67" r="10.32"/><circle class="cls-1" cx="70.44" cy="210.72" r="10.32"/><circle class="cls-1" cx="70.44" cy="235.77" r="10.32"/><circle class="cls-1" cx="100.5" cy="85.47" r="10.32"/><circle class="cls-1" cx="100.5" cy="110.52" r="10.32"/><circle class="cls-1" cx="100.5" cy="135.57" r="10.32"/><circle class="cls-1" cx="100.5" cy="160.62" r="10.32"/><circle class="cls-1" cx="100.5" cy="185.67" r="10.32"/><circle class="cls-1" cx="100.5" cy="210.72" r="10.32"/><circle class="cls-1" cx="100.5" cy="235.77" r="10.32"/><circle class="cls-1" cx="280.86" cy="235.77" r="10.32"/><circle class="cls-1" cx="334.33" cy="10.32" r="10.32"/><circle class="cls-1" cx="364.39" cy="10.32" r="10.32"/><circle class="cls-1" cx="394.45" cy="10.32" r="10.32"/><circle class="cls-1" cx="424.51" cy="10.32" r="10.32"/><circle class="cls-1" cx="454.57" cy="10.32" r="10.32"/><circle class="cls-1" cx="484.63" cy="10.32" r="10.32"/><circle class="cls-1" cx="514.69" cy="10.32" r="10.32"/><circle class="cls-1" cx="544.75" cy="10.32" r="10.32"/><circle class="cls-1" cx="574.81" cy="10.32" r="10.32"/><circle class="cls-1" cx="334.33" cy="310.92" r="10.32"/><circle class="cls-1" cx="364.39" cy="310.92" r="10.32"/><circle class="cls-1" cx="394.45" cy="310.92" r="10.32"/><circle class="cls-1" cx="424.51" cy="310.92" r="10.32"/><circle class="cls-1" cx="454.57" cy="310.92" r="10.32"/><circle class="cls-1" cx="484.63" cy="310.92" r="10.32"/><circle class="cls-1" cx="514.69" cy="310.92" r="10.32"/><circle class="cls-1" cx="544.75" cy="310.92" r="10.32"/><circle class="cls-1" cx="574.81" cy="310.92" r="10.32"/><circle class="cls-1" cx="334.33" cy="35.37" r="10.32"/><circle class="cls-1" cx="364.39" cy="35.37" r="10.32"/><circle class="cls-1" cx="394.45" cy="35.37" r="10.32"/><circle class="cls-1" cx="424.51" cy="35.37" r="10.32"/><circle class="cls-1" cx="454.57" cy="35.37" r="10.32"/><circle class="cls-1" cx="484.63" cy="35.37" r="10.32"/><circle class="cls-1" cx="514.69" cy="35.37" r="10.32"/><circle class="cls-1" cx="544.75" cy="35.37" r="10.32"/><circle class="cls-1" cx="574.81" cy="35.37" r="10.32"/><circle class="cls-1" cx="604.87" cy="35.37" r="10.32"/><circle class="cls-1" cx="334.33" cy="260.82" r="10.32"/><circle class="cls-1" cx="364.39" cy="260.82" r="10.32"/><circle class="cls-1" cx="394.45" cy="260.82" r="10.32"/><circle class="cls-1" cx="424.51" cy="260.82" r="10.32"/><circle class="cls-1" cx="454.57" cy="260.82" r="10.32"/><circle class="cls-1" cx="484.63" cy="260.82" r="10.32"/><circle class="cls-1" cx="514.69" cy="260.82" r="10.32"/><circle class="cls-1" cx="544.75" cy="260.82" r="10.32"/><circle class="cls-1" cx="574.81" cy="260.82" r="10.32"/><circle class="cls-1" cx="604.87" cy="260.82" r="10.32"/><circle class="cls-1" cx="334.33" cy="285.87" r="10.32"/><circle class="cls-1" cx="364.39" cy="285.87" r="10.32"/><circle class="cls-1" cx="394.45" cy="285.87" r="10.32"/><circle class="cls-1" cx="424.51" cy="285.87" r="10.32"/><circle class="cls-1" cx="454.57" cy="285.87" r="10.32"/><circle class="cls-1" cx="484.63" cy="285.87" r="10.32"/><circle class="cls-1" cx="514.69" cy="285.87" r="10.32"/><circle class="cls-1" cx="544.75" cy="285.87" r="10.32"/><circle class="cls-1" cx="574.81" cy="285.87" r="10.32"/><circle class="cls-1" cx="604.87" cy="285.87" r="10.32"/><circle class="cls-1" cx="334.33" cy="60.42" r="10.32"/><circle class="cls-1" cx="364.39" cy="60.42" r="10.32"/><circle class="cls-1" cx="394.45" cy="60.42" r="10.32"/><circle class="cls-1" cx="424.51" cy="60.42" r="10.32"/><circle class="cls-1" cx="454.57" cy="60.42" r="10.32"/><circle class="cls-1" cx="484.63" cy="60.42" r="10.32"/><circle class="cls-1" cx="514.69" cy="60.42" r="10.32"/><circle class="cls-1" cx="544.75" cy="60.42" r="10.32"/><circle class="cls-1" cx="544.75" cy="85.47" r="10.32"/><circle class="cls-1" cx="544.75" cy="110.52" r="10.32"/><circle class="cls-1" cx="544.75" cy="135.57" r="10.32"/><circle class="cls-1" cx="544.75" cy="160.62" r="10.32"/><circle class="cls-1" cx="544.75" cy="185.67" r="10.32"/><circle class="cls-1" cx="544.75" cy="210.72" r="10.32"/><circle class="cls-1" cx="544.75" cy="235.77" r="10.32"/><circle class="cls-1" cx="574.81" cy="60.42" r="10.32"/><circle class="cls-1" cx="604.87" cy="60.42" r="10.32"/><circle class="cls-1" cx="574.81" cy="85.47" r="10.32"/><circle class="cls-1" cx="604.87" cy="85.47" r="10.32"/><circle class="cls-1" cx="574.81" cy="110.52" r="10.32"/><circle class="cls-1" cx="604.87" cy="110.52" r="10.32"/><circle class="cls-1" cx="574.81" cy="135.57" r="10.32"/><circle class="cls-1" cx="604.87" cy="135.57" r="10.32"/><circle class="cls-1" cx="574.81" cy="160.62" r="10.32"/><circle class="cls-1" cx="604.87" cy="160.62" r="10.32"/><circle class="cls-1" cx="574.81" cy="185.67" r="10.32"/><circle class="cls-1" cx="604.87" cy="185.67" r="10.32"/><circle class="cls-1" cx="574.81" cy="210.72" r="10.32"/><circle class="cls-1" cx="604.87" cy="210.72" r="10.32"/><circle class="cls-1" cx="574.81" cy="235.77" r="10.32"/><circle class="cls-1" cx="364.39" cy="85.47" r="10.32"/><circle class="cls-1" cx="364.39" cy="110.52" r="10.32"/><circle class="cls-1" cx="364.39" cy="135.57" r="10.32"/><circle class="cls-1" cx="364.39" cy="160.62" r="10.32"/><circle class="cls-1" cx="364.39" cy="185.67" r="10.32"/><circle class="cls-1" cx="364.39" cy="210.72" r="10.32"/><circle class="cls-1" cx="364.39" cy="235.77" r="10.32"/><circle class="cls-1" cx="394.45" cy="85.47" r="10.32"/><circle class="cls-1" cx="394.45" cy="110.52" r="10.32"/><circle class="cls-1" cx="394.45" cy="135.57" r="10.32"/><circle class="cls-1" cx="394.45" cy="160.62" r="10.32"/><circle class="cls-1" cx="394.45" cy="185.67" r="10.32"/><circle class="cls-1" cx="394.45" cy="210.72" r="10.32"/><circle class="cls-1" cx="394.45" cy="235.77" r="10.32"/><circle class="cls-1" cx="424.51" cy="85.47" r="10.32"/><circle class="cls-1" cx="424.51" cy="110.52" r="10.32"/><circle class="cls-1" cx="424.51" cy="135.57" r="10.32"/><circle class="cls-1" cx="454.57" cy="135.57" r="10.32"/><circle class="cls-1" cx="484.63" cy="135.57" r="10.32"/><circle class="cls-1" cx="514.69" cy="135.57" r="10.32"/><circle class="cls-1" cx="424.51" cy="160.62" r="10.32"/><circle class="cls-1" cx="454.57" cy="160.62" r="10.32"/><circle class="cls-1" cx="484.63" cy="160.62" r="10.32"/><circle class="cls-1" cx="514.69" cy="160.62" r="10.32"/><circle class="cls-1" cx="424.51" cy="185.67" r="10.32"/><circle class="cls-1" cx="454.57" cy="185.67" r="10.32"/><circle class="cls-1" cx="484.63" cy="185.67" r="10.32"/><circle class="cls-1" cx="514.69" cy="185.67" r="10.32"/><circle class="cls-1" cx="424.51" cy="210.72" r="10.32"/><circle class="cls-1" cx="424.51" cy="235.77" r="10.32"/><circle class="cls-1" cx="604.87" cy="235.77" r="10.32"/><circle class="cls-1" cx="688.4" cy="10.32" r="10.32"/><circle class="cls-1" cx="718.46" cy="10.32" r="10.32"/><circle class="cls-1" cx="748.52" cy="10.32" r="10.32"/><circle class="cls-1" cx="778.58" cy="10.32" r="10.32"/><circle class="cls-1" cx="808.64" cy="10.32" r="10.32"/><circle class="cls-1" cx="838.7" cy="10.32" r="10.32"/><circle class="cls-1" cx="868.76" cy="10.32" r="10.32"/><circle class="cls-1" cx="898.82" cy="10.32" r="10.32"/><circle class="cls-1" cx="688.4" cy="310.92" r="10.32"/><circle class="cls-1" cx="718.46" cy="310.92" r="10.32"/><circle class="cls-1" cx="748.52" cy="310.92" r="10.32"/><circle class="cls-1" cx="778.58" cy="310.92" r="10.32"/><circle class="cls-1" cx="808.64" cy="310.92" r="10.32"/><circle class="cls-1" cx="838.7" cy="310.92" r="10.32"/><circle class="cls-1" cx="868.76" cy="310.92" r="10.32"/><circle class="cls-1" cx="898.82" cy="310.92" r="10.32"/><circle class="cls-1" cx="658.34" cy="35.37" r="10.32"/><circle class="cls-1" cx="688.4" cy="35.37" r="10.32"/><circle class="cls-1" cx="718.46" cy="35.37" r="10.32"/><circle class="cls-1" cx="748.52" cy="35.37" r="10.32"/><circle class="cls-1" cx="778.58" cy="35.37" r="10.32"/><circle class="cls-1" cx="808.64" cy="35.37" r="10.32"/><circle class="cls-1" cx="838.7" cy="35.37" r="10.32"/><circle class="cls-1" cx="868.76" cy="35.37" r="10.32"/><circle class="cls-1" cx="898.82" cy="35.37" r="10.32"/><circle class="cls-1" cx="928.88" cy="35.37" r="10.32"/><circle class="cls-1" cx="658.34" cy="260.82" r="10.32"/><circle class="cls-1" cx="688.4" cy="260.82" r="10.32"/><circle class="cls-1" cx="718.46" cy="260.82" r="10.32"/><circle class="cls-1" cx="748.52" cy="260.82" r="10.32"/><circle class="cls-1" cx="778.58" cy="260.82" r="10.32"/><circle class="cls-1" cx="808.64" cy="260.82" r="10.32"/><circle class="cls-1" cx="838.7" cy="260.82" r="10.32"/><circle class="cls-1" cx="868.76" cy="260.82" r="10.32"/><circle class="cls-1" cx="898.82" cy="260.82" r="10.32"/><circle class="cls-1" cx="928.88" cy="260.82" r="10.32"/><circle class="cls-1" cx="658.34" cy="285.87" r="10.32"/><circle class="cls-1" cx="688.4" cy="285.87" r="10.32"/><circle class="cls-1" cx="718.46" cy="285.87" r="10.32"/><circle class="cls-1" cx="748.52" cy="285.87" r="10.32"/><circle class="cls-1" cx="778.58" cy="285.87" r="10.32"/><circle class="cls-1" cx="808.64" cy="285.87" r="10.32"/><circle class="cls-1" cx="838.7" cy="285.87" r="10.32"/><circle class="cls-1" cx="868.76" cy="285.87" r="10.32"/><circle class="cls-1" cx="898.82" cy="285.87" r="10.32"/><circle class="cls-1" cx="928.88" cy="285.87" r="10.32"/><circle class="cls-1" cx="658.34" cy="60.42" r="10.32"/><circle class="cls-1" cx="688.4" cy="60.42" r="10.32"/><circle class="cls-1" cx="718.46" cy="60.42" r="10.32"/><circle class="cls-1" cx="748.52" cy="60.42" r="10.32"/><circle class="cls-1" cx="778.58" cy="60.42" r="10.32"/><circle class="cls-1" cx="808.64" cy="60.42" r="10.32"/><circle class="cls-1" cx="838.7" cy="60.42" r="10.32"/><circle class="cls-1" cx="868.76" cy="60.42" r="10.32"/><circle class="cls-1" cx="868.76" cy="85.47" r="10.32"/><circle class="cls-1" cx="868.76" cy="135.57" r="10.32"/><circle class="cls-1" cx="868.76" cy="160.62" r="10.32"/><circle class="cls-1" cx="868.76" cy="185.67" r="10.32"/><circle class="cls-1" cx="868.76" cy="210.72" r="10.32"/><circle class="cls-1" cx="868.76" cy="235.77" r="10.32"/><circle class="cls-1" cx="898.82" cy="60.42" r="10.32"/><circle class="cls-1" cx="928.88" cy="60.42" r="10.32"/><circle class="cls-1" cx="898.82" cy="85.47" r="10.32"/><circle class="cls-1" cx="928.88" cy="85.47" r="10.32"/><circle class="cls-1" cx="898.82" cy="135.57" r="10.32"/><circle class="cls-1" cx="898.82" cy="160.62" r="10.32"/><circle class="cls-1" cx="928.88" cy="160.62" r="10.32"/><circle class="cls-1" cx="898.82" cy="185.67" r="10.32"/><circle class="cls-1" cx="928.88" cy="185.67" r="10.32"/><circle class="cls-1" cx="898.82" cy="210.72" r="10.32"/><circle class="cls-1" cx="928.88" cy="210.72" r="10.32"/><circle class="cls-1" cx="898.82" cy="235.77" r="10.32"/><circle class="cls-1" cx="688.4" cy="85.47" r="10.32"/><circle class="cls-1" cx="688.4" cy="110.52" r="10.32"/><circle class="cls-1" cx="688.4" cy="135.57" r="10.32"/><circle class="cls-1" cx="688.4" cy="160.62" r="10.32"/><circle class="cls-1" cx="658.34" cy="85.47" r="10.32"/><circle class="cls-1" cx="658.34" cy="110.52" r="10.32"/><circle class="cls-1" cx="658.34" cy="135.57" r="10.32"/><circle class="cls-1" cx="658.34" cy="160.62" r="10.32"/><circle class="cls-1" cx="688.4" cy="185.67" r="10.32"/><circle class="cls-1" cx="688.4" cy="235.77" r="10.32"/><circle class="cls-1" cx="658.34" cy="235.77" r="10.32"/><circle class="cls-1" cx="718.46" cy="85.47" r="10.32"/><circle class="cls-1" cx="718.46" cy="110.52" r="10.32"/><circle class="cls-1" cx="718.46" cy="135.57" r="10.32"/><circle class="cls-1" cx="718.46" cy="160.62" r="10.32"/><circle class="cls-1" cx="718.46" cy="185.67" r="10.32"/><circle class="cls-1" cx="718.46" cy="235.77" r="10.32"/><circle class="cls-1" cx="748.52" cy="135.57" r="10.32"/><circle class="cls-1" cx="778.58" cy="135.57" r="10.32"/><circle class="cls-1" cx="808.64" cy="135.57" r="10.32"/><circle class="cls-1" cx="838.7" cy="135.57" r="10.32"/><circle class="cls-1" cx="748.52" cy="160.62" r="10.32"/><circle class="cls-1" cx="778.58" cy="160.62" r="10.32"/><circle class="cls-1" cx="808.64" cy="160.62" r="10.32"/><circle class="cls-1" cx="838.7" cy="160.62" r="10.32"/><circle class="cls-1" cx="748.52" cy="185.67" r="10.32"/><circle class="cls-1" cx="778.58" cy="185.67" r="10.32"/><circle class="cls-1" cx="808.64" cy="185.67" r="10.32"/><circle class="cls-1" cx="838.7" cy="185.67" r="10.32"/><circle class="cls-1" cx="928.88" cy="235.77" r="10.32"/></svg>