<svg xmlns="http://www.w3.org/2000/svg" xmlns:xlink="http://www.w3.org/1999/xlink" viewBox="0 0 365 270"><defs><style>.cls-1{isolation:isolate;}.cls-2{fill:#f4f4f4;}.cls-3{font-size:28px;font-family:Poppins-Regular, Poppins;}.cls-4{fill:#ddac9e;}.cls-5,.cls-9{fill:#bfb8b8;}.cls-6{fill:#232121;}.cls-14,.cls-7{fill:#d8d8d8;}.cls-16,.cls-17,.cls-18,.cls-21,.cls-22,.cls-8,.cls-9{mix-blend-mode:multiply;}.cls-10{fill:#e8c8ba;}.cls-11{fill:#300901;}.cls-12{fill:#4d87db;}.cls-13{fill:#3357bc;}.cls-14{opacity:0.5;}.cls-15{fill:#414e5b;}.cls-16{fill:url(#linear-gradient);}.cls-17{fill:url(#linear-gradient-2);}.cls-18{fill:url(#linear-gradient-3);}.cls-19{fill:#e26713;}.cls-20{fill:#c14e00;}.cls-21{fill:url(#linear-gradient-4);}.cls-22{fill:url(#linear-gradient-5);}</style><linearGradient id="linear-gradient" x1="265.88" y1="87.58" x2="277.9" y2="64.63" gradientUnits="userSpaceOnUse"><stop offset="0" stop-color="#fff"/><stop offset="0.13" stop-color="#fafafa"/><stop offset="0.27" stop-color="#ededed"/><stop offset="0.41" stop-color="#d7d7d7"/><stop offset="0.56" stop-color="#b8b8b8"/><stop offset="0.72" stop-color="#909090"/><stop offset="0.86" stop-color="#646464"/></linearGradient><linearGradient id="linear-gradient-2" x1="266.72" y1="137.18" x2="306.48" y2="92.52" xlink:href="#linear-gradient"/><linearGradient id="linear-gradient-3" x1="317.66" y1="143.84" x2="346.69" y2="111.23" gradientUnits="userSpaceOnUse"><stop offset="0" stop-color="#fff"/><stop offset="0.08" stop-color="#f8f8f8"/><stop offset="0.2" stop-color="#e6e6e6"/><stop offset="0.34" stop-color="#c8c8c8"/><stop offset="0.49" stop-color="#9e9e9e"/><stop offset="0.65" stop-color="#686868"/><stop offset="0.66" stop-color="#646464"/></linearGradient><linearGradient id="linear-gradient-4" x1="190.9" y1="133.47" x2="230.05" y2="89.5" gradientUnits="userSpaceOnUse"><stop offset="0.24" stop-color="#fff"/><stop offset="0.3" stop-color="#f8f8f8"/><stop offset="0.39" stop-color="#e6e6e6"/><stop offset="0.49" stop-color="#c8c8c8"/><stop offset="0.6" stop-color="#9e9e9e"/><stop offset="0.72" stop-color="#686868"/><stop offset="0.73" stop-color="#646464"/></linearGradient><linearGradient id="linear-gradient-5" x1="191.51" y1="151.74" x2="190.15" y2="101.63" xlink:href="#linear-gradient-3"/></defs><g class="cls-1"><g id="Layer_1" data-name="Layer 1"><rect class="cls-2" width="365" height="270" rx="12.75"/><text class="cls-3" transform="translate(12.3 145.68)">Create<tspan x="0" y="33.6">New Job</tspan></text><path class="cls-4" d="M279.45,79.6c.82-2.24,4.08-3.87,4.08-3.87s-4.43-1-5.65-.47c-.29.12-1.92-2.43-2.11-2.13-.68-1.13-1.21.61-1.71.66-.92.11-7.69,2.7-7.69,2.7s.71,1.7.82,2.11a12.78,12.78,0,0,0,5.95,4.87c1.93.81,5,5.1,5.7,5.92,0,0,3.47-5.1,3.36-5.41a20.21,20.21,0,0,1-1.93-2.44C279.56,80.42,279.19,80.34,279.45,79.6Z"/><path class="cls-5" d="M313.76,105.09c-9.2-.12-32.95-23.7-32.95-23.7l-4.09,9.53L290,107,309,122.79Z"/><path d="M221.2,246a4.51,4.51,0,0,1-4.45,4.58h-23a4.51,4.51,0,0,1-4.44-4.58V204.79a4.52,4.52,0,0,1,4.44-4.57h23a4.52,4.52,0,0,1,4.45,4.57Z"/><path class="cls-6" d="M353,246a4.51,4.51,0,0,1-4.44,4.58h-23a4.51,4.51,0,0,1-4.44-4.58V204.79a4.51,4.51,0,0,1,4.44-4.57h23a4.51,4.51,0,0,1,4.44,4.57Z"/><path class="cls-5" d="M345.6,170c-.86-.68-4-1.9-8.82-3.29-3.7-9.29-11.32-29.78-16.54-31.82-11.22-4.39-39.44-6.81-47.33-7.17H269.8c-7.89.36-36.58,2.78-47.81,7.17-5.21,2-12.83,22.53-16.54,31.82-4.85,1.39-7.95,2.61-8.81,3.29-3.21,2.54-10.75,8.13-8.72,25.69,1.23,10.61,5.87,36.38,5.87,36.38h149.3s8.83-24.42,8.83-36.38C351.92,177.32,348.81,172.49,345.6,170Zm-74.48-11.3A241.34,241.34,0,0,0,214,164.48c3.61-9.14,9.11-22.5,13.06-24,10.07-3.94,35.86-6,42.94-6.36h2.79c7.07.32,32.37,2.42,42.44,6.36,4,1.55,9.45,14.91,13.07,24A240.82,240.82,0,0,0,271.12,158.65Z"/><path class="cls-7" d="M351.53,155.54l-7.59-1.26c-3.76-.63-7.2,1.41-7.41,4.63a3.26,3.26,0,0,1-1.49,2l-4.17.91a2.36,2.36,0,0,0-1.76,2.8c.26,1.27,2.28,3,3.52,2.79l6-1.31c1.38,1.58,2.9,1.54,5.35,1.38l7.59-.51a4.7,4.7,0,0,0,4.47-4.6v-1.78A5.3,5.3,0,0,0,351.53,155.54Z"/><path class="cls-5" d="M189.21,155.54l7.58-1.26c3.78-.63,7.21,1.41,7.42,4.63a3.32,3.32,0,0,0,1.5,2l4.17.91a2.35,2.35,0,0,1,1.75,2.8c-.26,1.27-1.79,3.08-3,2.81l-6-1.3c-1.38,1.57-3.38,1.51-5.84,1.35l-7.58-.51a4.68,4.68,0,0,1-4.46-4.6v-1.78A5.28,5.28,0,0,1,189.21,155.54Z"/><path class="cls-7" d="M348.35,232s4.83-23.73,6.16-36.38c1.86-17.93-5.51-23.15-8.73-25.69-.85-.68-4-1.9-8.82-3.29-3.7-9.29-11.32-29.78-16.54-31.82-11.22-4.39-39.43-6.81-47.33-7.17h-1.71v6.4h1.56c7.08.32,32.37,2.42,42.45,6.36,3.95,1.55,9.44,14.91,13.05,24a241.16,241.16,0,0,0-57.06-5.83V232h77Z"/><g class="cls-8"><path class="cls-5" d="M238.37,224.64h65.5c7.46,0,13.55-6.07,14.06-13.74H224.3C224.82,218.57,230.91,224.64,238.37,224.64Z"/></g><g class="cls-8"><path class="cls-5" d="M237.69,189.59c-2.56-4.45-2.56-6.92,1.51-6.92h66.67c4.82.19,3.63,3.07,1.8,6.82l-1.76,3.65c-1.82,3.75-5.16,6.82-9.24,6.82h-48.4c-4.07,0-7.32-3.11-9-6.92Z"/></g><path class="cls-9" d="M226.62,189.91c.07,2.68-5.36,2.77-8.43,2.77H199.46a5.63,5.63,0,0,1-5.55-5.71v-1.91c0-3.15,1.79-4,5.44-5.23L215.21,177c6.76-.09,11.54,7.89,11.54,11Z"/><path class="cls-5" d="M224.9,189.6c0,2.88-5,2.53-7.79,2.53h-17a5.13,5.13,0,0,1-5-5.2v-1.74c0-2.86,1.63-3.63,4.94-4.77l14.44-2.6c6.16-.08,10.5,7.18,10.5,10.06Z"/><path class="cls-9" d="M316.62,189.91c-.07,2.68,5.37,2.77,8.44,2.77h18.73a5.62,5.62,0,0,0,5.54-5.71v-1.91c0-3.15-1.79-4-5.43-5.23L328,177c-6.76-.09-11.53,7.89-11.53,11Z"/><path class="cls-7" d="M318.35,189.6c0,2.88,5,2.53,7.78,2.53h17.05a5.13,5.13,0,0,0,5-5.2v-1.74c0-2.86-1.63-3.63-4.94-4.77l-14.44-2.6c-6.15-.08-10.49,7.18-10.49,10.06Z"/><path class="cls-10" d="M321.9,87.82c-.23,2.21,2.45,9.54,3.84,12.61s1.19,3.43,1.19,3.43l-11,10.16s.52-13.23-3.2-14.91C310.41,98.09,321.9,87.82,321.9,87.82Z"/><path class="cls-10" d="M312.47,98.5c-.55-.44.13-1.71,1.1-3l.76-.35,6,13.58-2.73,2.34-1.76-2.26S316.17,101.42,312.47,98.5Z"/><path class="cls-10" d="M306.73,87.49c-.37,6.39,2.95,13.35,6.18,13.54s10.57-5,10.94-11.37S320.27,77.45,314.18,78C307.52,78.63,307.12,81.12,306.73,87.49Z"/><path class="cls-11" d="M307.83,77.07c-1.52,2.74-1.31,4.65.17,4.94s3,.27,3.92,1.22,2.51,1.24,3.19,1.85-.35-2.56-.35-2.56l1,2.48,0-2.32.36,1.22,2.19,2,.27,3.29,1.49,1.32.7-2.35.9,4,2.85,5.26A67.08,67.08,0,0,0,327.21,91a12.77,12.77,0,0,0,.59-4.4c.1-1.77.11-2.19.08-3.86s-1.36-4.56-2.5-5-1.82-.82-2.45-.59-.53-1.13-2.2-1.75a11.06,11.06,0,0,0-4.06-1.21,12.05,12.05,0,0,0-6.28,1.06A7.46,7.46,0,0,0,307.83,77.07Z"/><path class="cls-6" d="M339.51,262.21l2.26.22s7.59-.61,3.84-5.65c-2.24-3-3.27-6.53-4.21-9.61-.6-1.95-7.65-.13-7.65-.13s1.84,5.49.91,7.3C330.69,262.21,339.51,262.21,339.51,262.21Z"/><path d="M312.22,245.24c-.81,3.26,1.06,6.4-4.21,8.28-2.43.87-6.4,2.64-6,5.08.51,3.33,7.79,2.14,7.79,2.14s8.15-3.27,10.6-3.27,1.46-6.65.64-9.91S312.22,245.24,312.22,245.24Z"/><path class="cls-5" d="M326.28,101.92c3.92,1.21,11.49,2.87,12.4,4.37s-3.77,15.38-4.37,19.59-28.64,4.53-28.64,4.53L304.14,117s1.07-9.31,2-9.8a39.93,39.93,0,0,1,9.07-3.33c.67,3.16.11,4.17,1.47,5.54S326.28,101.92,326.28,101.92Z"/><path class="cls-7" d="M326.17,101.7c3.92,1.2,10.84,2.7,11.75,4.21s-3,11.83-2.86,21.48c0,2.79-14.9,2.37-23.25,2.8,1.12-8.43,3.23-18.91,3.95-21.6C318.83,110.28,326.17,101.7,326.17,101.7Z"/><path class="cls-12" d="M314,104.45c-2.41,3.32-5.26,15.41-5.26,15.41h-2.42s1-10.14,5.5-14.86A2.2,2.2,0,0,1,314,104.45Z"/><path class="cls-13" d="M306,117.35a149.08,149.08,0,0,0,16.82.73c0-1.2,6.67-12,8.25-14.12l1.92.22s-4.75,11.45-4.75,14.47,7.77,5.28,7.92,5.73c.48,1.43-2.11,17.18-2.42,20.5a21.1,21.1,0,0,0,.13,3.12c5,12.11,5.28,34.66,6,43.2,1,11.17,9.81,56.16,3.48,61.06l-10-.38s-7.63-34.52-8.47-37.84-5.45-34-5.45-34,2.93,28.45,3.82,35.41c3.92,30.75-1.29,35.43-1.29,35.43l-11.21-.39s-4-33-4.94-41.3A420.25,420.25,0,0,1,304,148.72C303.37,131.24,305.05,121.87,306,117.35Z"/><path class="cls-12" d="M322.78,118c0-1.2,6.78-12.83,8.36-15l3.28.91s-6.22,11.62-6.22,14.63,7.77,5.28,7.92,5.73c.48,1.43-2.11,17.18-2.42,20.5a21.3,21.3,0,0,0,.13,3.13c5,12.11,5.28,34.66,6,43.19,1,11.16,9.81,56.17,3.48,61.06l-3.71-.58s-11.73-95.48-12.53-104.31C326,135.32,322.78,118,322.78,118Z"/><path class="cls-14" d="M324,131.7l-16.86-49c-2.15-5-6.38-7.1-11.81-7.1H195.62c-5.44,0-9.67,2.11-11.81,7.1l-15.87,49c-1.79,4.16-.22,7.68,3.49,8.73,4.36,3,36.07,5.28,77,5.28s68.58-2.33,72.2-5.31C324.28,139.31,325.81,135.82,324,131.7Z"/><path class="cls-15" d="M196.15,145.49c-13.47-1-22.21-2.11-25.13-3.82h0a6.46,6.46,0,0,1-4.82-6.34h0a9.26,9.26,0,0,1,.79-3.61h0l15.9-49.1c2.29-5.38,7.06-7.74,12.72-7.7h99.76c5.66,0,10.44,2.32,12.74,7.76h0l16.85,49a9.38,9.38,0,0,1,.8,3.65h0a6.43,6.43,0,0,1-4.69,6.3h0c-2.64,1.78-10.14,2.86-22.4,3.86h0c-12.49.95-29.65,1.53-50.22,1.53h0c-20.49,0-38.68-.57-52.3-1.53ZM184.74,83.31l-15.9,49.11a7.38,7.38,0,0,0-.66,2.91h0a4.48,4.48,0,0,0,3.52,4.49h0l.15,0,.13.08c1.6,1.21,10.82,2.69,24.31,3.58h0c13.55.95,31.71,1.53,52.16,1.53h0c20.53,0,37.65-.58,50.07-1.54h0c12.35-.88,20.33-2.42,21.5-3.54h0l.15-.13.19-.05a4.43,4.43,0,0,0,3.42-4.46h0a7.3,7.3,0,0,0-.66-2.91h0L324,132l-.93.32L306.27,83.4c-2-4.61-5.7-6.46-10.9-6.51H195.61c-5.2,0-8.88,1.9-10.87,6.42Z"/><path class="cls-16" d="M277.45,78.71l-3.63,5.14-4.18,6.44L260,85.57l7.08-11.08s6.26-2.35,7.35-1.09A36.74,36.74,0,0,1,277.45,78.71Z"/><path class="cls-10" d="M275.36,72.47c-2.38-1.29-9.51-.12-9.13,3.62s4.13,5,4.7,4.62c0,0,.39-.07.22-.35a11.88,11.88,0,0,1-1.51-2.85c2,2.8,3,3.28,3.88,3.14s-1.62-4.31-1.62-4.31,2.58,4.31,3.73,3.65c.72-.42-1.8-4.91-1.8-4.91s3,4.13,3.62,3.63c1-.76-1.68-6-1.68-6Z"/><polygon class="cls-17" points="293.25 125.88 278.72 145.86 250.39 146.22 283.08 96.65 293.25 125.88"/><polygon class="cls-18" points="335.74 119.71 317.94 161.29 304.32 145.49 327.2 115.35 335.74 119.71"/><path class="cls-19" d="M281.5,100a5.66,5.66,0,1,0,5.19-6.08A5.66,5.66,0,0,0,281.5,100Z"/><path class="cls-19" d="M283.29,122.56a5.66,5.66,0,1,0,5.19-6.09A5.64,5.64,0,0,0,283.29,122.56Z"/><path class="cls-6" d="M285.11,92.73a1.56,1.56,0,0,1,3.1-.26c.05.62-.32.83-.81,1.13l.9,6.26-2.12.16-.1-6.3C285.53,93.51,285.16,93.35,285.11,92.73Z"/><path class="cls-20" d="M284.94,104.42c-.17,1,.39,2,1.29,1.92l2.84-.22c.9-.07,1.32-1.1,1-2.11l-1.31-4.29a.89.89,0,0,0-.93-.5l-1.33.11a.91.91,0,0,0-.85.63Z"/><path class="cls-6" d="M288,128.72a1.56,1.56,0,0,0,3.1-.24c-.05-.62-.44-.77-1-1l-.09-6.32-2.13.16.91,6.25C288.25,127.88,287.91,128.1,288,128.72Z"/><path class="cls-20" d="M286,117.2c-.33-1,.07-2,1-2.1l2.84-.23c.9-.07,1.48.87,1.34,1.92l-.63,4.45a.89.89,0,0,1-.84.64l-1.32.11a.9.9,0,0,1-.94-.5Z"/><path class="cls-6" d="M288.87,104.87c-.5-1-2.63,0-2.63,0s.6,7.56.92,11.51l2.53-.2Z"/><path class="cls-10" d="M329,117.07c-2.35-.68-8.65.88-12.17-.27-9-2.94-21.52-7.86-22.63-8.16-1.54-.43-3.6-2.1-4.93-2.16a7.62,7.62,0,0,0-3.8.41c-1.21.57-3.09,1.39-2.63,2.42s.5.9,1.54.43l1-.46a3.54,3.54,0,0,0-1.84,1.75c-.49,1.21.42,1.17,1.16,1.22a2.7,2.7,0,0,0,1.47-.42s-2.22.29-2,1.38,2.17.71,2.17.71-1.77,1.09-.75,1.49,2.38,0,4-.25,3.37-.75,4.81-.24c1.11.4,16.19,8.57,22,11.33,1.69.79,7.09-1.38,7.91-1.82C330.92,120.89,329,117.07,329,117.07Z"/><path class="cls-7" d="M335,105c1.91-.82,4.17,1.08,4.36,3.45.91,11.62-4.91,13.08-12.9,17.61-2.16,1.23-6.71,2-8.89,2.37,1.09-5.45-.11-11-1.46-12.35,7.09-1.45,16.57-7.86,16.57-7.86Z"/><polygon class="cls-21" points="210.16 130.29 195.82 146.49 174.58 142.14 174.58 133.42 208.63 95.01 210.16 130.29"/><path class="cls-22" d="M212.61,113.92l-22,30.12s-21-.82-21.52-4.09,1.09-16.88,1.09-16.88l38.95-10.63Z"/><path class="cls-6" d="M134,250.78c-.6,2.38-3,9.83,0,11.61s5.88.52,7.36.52,11.47-1.64,12.06-4-.07-5.73-9.08-5.13c-3.2-1.49-1.71-3.28-1.71-3.28Z"/><path d="M150.54,252.12c-.6,2.38-3,9.82,0,11.62s5.88.51,7.37.51,10.94-.07,11.53-2.46.45-7.29-8.55-6.69c-3.2-1.49-1.72-3.27-1.72-3.27Z"/><path class="cls-19" d="M215.89,99.71a5.66,5.66,0,1,1-5.66-5.66A5.66,5.66,0,0,1,215.89,99.71Z"/><path class="cls-19" d="M215.89,122.33a5.66,5.66,0,1,1-5.66-5.66A5.66,5.66,0,0,1,215.89,122.33Z"/><path class="cls-6" d="M211.71,92.73a1.56,1.56,0,0,0-3.11,0c0,.62.38.8.9,1l-.4,6.31h2.13l-.41-6.29C211.36,93.55,211.71,93.36,211.71,92.73Z"/><path class="cls-20" d="M212.8,104.37c.25,1-.23,2-1.13,2h-2.85c-.9,0-1.4-1-1.17-2l1-4.38a.87.87,0,0,1,.89-.57h1.33a.9.9,0,0,1,.89.57Z"/><path class="cls-6" d="M211.71,128.84a1.56,1.56,0,0,1-3.11,0c0-.61.38-.8.9-1l-.4-6.31h2.13l-.41,6.3C211.36,128,211.71,128.22,211.71,128.84Z"/><path class="cls-20" d="M212.8,117.2c.25-1-.23-2-1.13-2h-2.85c-.9,0-1.4,1-1.17,2l1,4.38a.87.87,0,0,0,.89.57h1.33a.9.9,0,0,0,.89-.57Z"/><path class="cls-6" d="M208.92,105.12c.43-1,2.62-.23,2.62-.23v11.54H209Z"/><path class="cls-10" d="M203.73,109.68a21,21,0,0,1,4.83-2.55c1.16-.33,3.57-.75,4.29-.17s.39,1.06.39,1.06a1.75,1.75,0,0,1,.65,2.38,1.57,1.57,0,0,1-.29,2.15c.5.6-.43,1.17-1,1.37-1.48.5-3.74.46-5.54.7-.7.09-5,4-5.89,4.49s-4-7.11-4-7.11Z"/><path class="cls-4" d="M155.21,87.89c.24,2.33-2.65,10.07-4.16,13.32a60.86,60.86,0,0,1-4.68,7.71l15.28,6.63s-.56-14,3.47-15.74C167.62,98.72,155.21,87.89,155.21,87.89Z"/><path class="cls-10" d="M165.39,99.16c.6-.46-.14-1.8-1.19-3.2l-1.75-1.19-5.52,15.17,2.95,2.49,1.9-2.39S161.39,102.25,165.39,99.16Z"/><path class="cls-10" d="M172.57,86.28c-.89,8.64-4.71,15.43-8.19,15.64s-10.88-5.37-11.29-12.1,3.88-12.89,10.46-12.3C170.74,78.17,173.27,79.58,172.57,86.28Z"/><path class="cls-11" d="M173.7,84.18c-.29-2.17-5.64-13.88-15.61-11s-10.26,7.22-10,12.42,2.45,11.28,4,12.59,8.06,2.37,8.06,2.37,3.41-7.29,4.08-8.3c1.16-1.74,4.06-3.64,3.91-1.47s1,1.76,1,1.76l1,.14s1.16-5.49,2-6.51A15.15,15.15,0,0,0,173.7,84.18Z"/><path class="cls-5" d="M158.58,107.58c-6.85-.15-8.34-4.47-8.34-4.47a17.46,17.46,0,0,1-4,1.3c-3,.57-9.16,7.34-6.71,20.74.34,1.85,1.57,3.56,2.16,10.11a8.4,8.4,0,0,0,6.16,7.75l4.17-4.17Z"/><path class="cls-7" d="M166.36,125.17c2.75.38,18,2.15,18,2.15,11.18-.78,19.13-8.43,19.13-8.43s.11-3.28-2.64-8.19c-1.77.59-12.15,4.49-16.07,4.29s-11.14-4.92-13.68-5.5-9.41.38-9.81,5.48C161.26,115,158.91,121.44,166.36,125.17Z"/><path class="cls-7" d="M170.86,124.92c-2.52,6.78-6,24.45-6.35,26.78s-12.76,2.73-12.93,1.58c-3.72-25.68,4.59-45.77,6.18-45.77a8.24,8.24,0,0,0,4.62-1.5,91.57,91.57,0,0,1,8.93,3.5C172.57,110.14,170.86,124.92,170.86,124.92Z"/><path class="cls-12" d="M161.26,120.9c-12.06,1.78-22.41,5.93-21.84,8.32-.07,9.07.63,16-.25,19.18-2.23,8-4,12.47-3.37,22.59s17.61,63.28,18.71,56.4c.61,5.58-2.19,22.23-.77,29,.14.13,6.32.46,6.32.46,3.44-.66,6.31-15,6.85-42.8.86-44.14,2.22-60.21,2.22-60.21.65-18.47,1.06-22.9,1.06-27.15C170.19,126.7,165.72,128.49,161.26,120.9Z"/><path class="cls-12" d="M167.21,107.2c-4.91,4.39-4.91,15.86-4.91,15.86l-3.58-.22s.75-12.73,5.22-15.71C165.14,106.33,167.21,107.2,167.21,107.2Z"/><path class="cls-13" d="M140.8,118.84c0-1.27.34-11.55,6.41-14.71l-3.41,1s-4.22,2.32-4.63,15.14c-.08,2.74-.59,5.21-.15,9.23.3,10.42-.11,15.32-.67,17.3A65.71,65.71,0,0,0,135.88,171c.59,10.13,1.19,32.16,0,40.5s-6.63,36.32-3.06,41.67c1.05,4.77,12.36,1.27,12.36,1.27s1.87-27.25,3-34.13c-1.27,34.87,1.11,36.14,1.11,36.14l5.88.22c7.15-23.74,6.57-83,6.85-94.3.3-11.61,2.09-34.24,2.68-36.92l-5.9-4.2C148.57,122.45,143.15,120.08,140.8,118.84Z"/></g></g></svg>