<svg xmlns="http://www.w3.org/2000/svg" xmlns:xlink="http://www.w3.org/1999/xlink" viewBox="0 0 365 270"><defs><style>.cls-1{isolation:isolate;}.cls-2{fill:#f4f4f4;}.cls-3{fill:#ddac9e;}.cls-4{fill:#e8c8ba;}.cls-5{fill:#300901;}.cls-6{fill:#232121;}.cls-7{fill:#d8d8d8;}.cls-8{fill:#bfb8b8;}.cls-9{fill:#4d87db;}.cls-10{fill:#3357bc;}.cls-11{mix-blend-mode:multiply;fill:url(#linear-gradient);}.cls-12{font-size:28px;font-family:Poppins-Regular, Poppins;}.cls-13{letter-spacing:-0.01em;}</style><linearGradient id="linear-gradient" x1="39.68" y1="153.79" x2="79.2" y2="153.79" gradientUnits="userSpaceOnUse"><stop offset="0" stop-color="#fff"/><stop offset="0.11" stop-color="#f3f3f3"/><stop offset="0.31" stop-color="#d4d4d4"/><stop offset="0.58" stop-color="#a2a2a2"/><stop offset="0.86" stop-color="#646464"/></linearGradient></defs><g class="cls-1"><g id="Layer_1" data-name="Layer 1"><rect class="cls-2" width="365" height="270" rx="12.75"/><path class="cls-3" d="M59.87,70.7c.25,2.43-2.76,10.47-4.32,13.85s-1.33,3.77-1.33,3.77L66.58,99.46S66,84.94,70.18,83.1C72.78,82,59.87,70.7,59.87,70.7Z"/><path class="cls-4" d="M70.46,82.43c.62-.48-.15-1.88-1.23-3.33l-.86-.38-6.7,14.91,3.07,2.59,2-2.49S66.3,85.63,70.46,82.43Z"/><path class="cls-4" d="M76.91,70.34c.42,7-3.32,14.64-6.94,14.86S58.1,79.71,57.68,72.72s4-13.41,10.87-12.79C76,60.61,76.47,63.34,76.91,70.34Z"/><path class="cls-3" d="M57.35,74c.4,6.38,8.29,10.38,12,11.24-4.59-2.77-6.43-15.57-3.87-23.49a36.81,36.81,0,0,0-4.11.73C59.77,64.43,57.13,70.34,57.35,74Z"/><path class="cls-5" d="M75.68,58.89c1.71,3,1.47,5.1-.19,5.43s-3.34.28-4.41,1.34-2.82,1.36-3.58,2,.39-2.82.39-2.82L66.77,67.6l0-2.55-.4,1.34-2.46,2.16-.3,3.61L61.9,73.62,61.11,71l-1,4.44-3.2,5.77a71.86,71.86,0,0,1-3-7.07,13.35,13.35,0,0,1-.67-4.84c-.11-1.94-.12-2.4-.09-4.23,0-2,1.52-5,2.81-5.54s2-.9,2.76-.64.59-1.25,2.46-1.93a12.46,12.46,0,0,1,4.56-1.33,14,14,0,0,1,7.07,1.16A8.41,8.41,0,0,1,75.68,58.89Z"/><path class="cls-6" d="M40.08,257.43l-2.54.25S29,257,33.22,251.47c2.52-3.32,3.68-7.17,4.74-10.56.67-2.14,8.59-.14,8.59-.14s-2.07,6-1,8C50,257.43,40.08,257.43,40.08,257.43Z"/><path d="M70.74,238.8c.92,3.58-1.19,7,4.73,9.09,2.73,1,7.2,2.9,6.77,5.58-.57,3.66-8.75,2.35-8.75,2.35s-9.17-3.59-11.91-3.59-1.64-7.3-.73-10.89S70.74,238.8,70.74,238.8Z"/><path class="cls-7" d="M55,86.18C50.54,87.51,42,89.33,41,91s4.24,16.88,4.91,21.52,32.18,5,32.18,5l4.58-14.07S78.44,92.6,77.4,92.06c-2.66-1.39-8.06-3.53-10-3.77-.76,3.48-.13,4.59-1.65,6.09S55,86.18,55,86.18Z"/><path class="cls-8" d="M55.07,85.93c-4.41,1.33-13.38,3.4-14.39,5s4.57,12.58,4.4,23.18c0,3,16.75,2.59,26.12,3.06-1.26-9.26-3.63-20.76-4.44-23.71C63.32,95.37,55.07,85.93,55.07,85.93Z"/><path class="cls-9" d="M70.82,89c2.71,3.65,3.9,16.89,3.9,16.89h2.7s-1.69-14.73-3-15.39S70.82,89,70.82,89Z"/><path class="cls-9" d="M76.49,103.64s-10.5.62-17.61.29c0-1.32-7.49-13.15-9.27-15.51l-2.16.24s5.33,12.58,5.33,15.89-8.71,5.8-8.89,6.29c-.53,1.57,2.37,18.87,2.72,22.51a23,23,0,0,1-.14,3.44c-5.65,13.3-5.94,38.06-6.79,47.43-1.1,12.27-11,56.9-3.91,62.28l11.17-.41s7.2-39.39,8.13-43S64,167.54,64,167.54,62.72,198,61.72,205.66c-4.4,33.77-2,39.27-2,39.27l12.61-.41c3.57-.69,3.57-13.94,7.12-42.64a397.75,397.75,0,0,0,2.26-64.62C82.41,118.06,77.51,108.61,76.49,103.64Z"/><path class="cls-10" d="M58.88,103.87c0-1.32-7.62-14.09-9.4-16.45l-3.68,1s7,12.76,7,16.07-8.71,5.79-8.89,6.29c-.53,1.57,2.37,18.87,2.72,22.51a22.83,22.83,0,0,1-.14,3.43c-5.65,13.31-5.94,38.07-6.79,47.44-1.1,12.26-11,56.9-3.91,62.29L46.94,246s9.33-33.89,10.26-37.53S62,181.1,62,181.1s-1.4,16.24-2.4,23.88c-4.4,33.77.1,39.89.1,39.89l6.85.23c1.59-9.6,4.51-33.29,5.76-46.27,1.39-14.49,3.4-67.21.69-95C69.51,103.92,62.47,104,58.88,103.87Z"/><polygon points="44.11 121.64 75.39 117.6 96.34 121.92 70.67 127.69 44.11 121.64"/><path class="cls-11" d="M79.2,125.91,39.68,184.16s.91-29.7,3.71-38.15,2.79-22.59,2.79-22.59Z"/><path class="cls-4" d="M36.93,121.2c12.79,1.33,18.32,3.38,18.32,3.38s1.85-1.46,3.9-3c4.66-3.48,5-1.66,5-1.66l-2.9,3.45,8.43-.08a1.28,1.28,0,0,1,1,.35c1.36,1.31,2.39,3.88-2,5.64-5.9,2.36-8.17.61-13.57,1.13-6.24.6-13.16.13-16.16.12S36.93,121.2,36.93,121.2Z"/><path class="cls-7" d="M40.84,91c-3.8,1-8.4,17.29-10.28,23.52-2.29,7.6-2,11.39-1.15,12.89,2.29,4,22.1,8.44,22.1,8.44l1.27-12.16s-13.21-2.73-12.7-3.47c1.83-2.69,5.38-9.29,5.42-10.68C45.92,95.37,40.84,91,40.84,91Z"/><polygon points="70.97 127.4 77.75 97.98 107.67 95.78 99.37 122.94 70.97 127.4"/><path class="cls-3" d="M90.7,126.76a18.72,18.72,0,0,1-3.56,1.46c-1.28.36-1.6-.74-2.28-1.46s-2-2.72-1.8-4,1.57,1.66,1.69,2.08-2.1-2.41-1.45-3.35,2.24,2.37,2.5,2.75-2.57-2.43-1.86-3.68S87.26,124,87.26,124s-1.88-4.27-1.13-4.33,2.63,3.16,2.75,3.56,1.28.7,1-.41.61-3.62.61-3.62a3.13,3.13,0,0,1,.67,2.21,24.19,24.19,0,0,0,.57,4Z"/><text class="cls-12" transform="translate(134.28 145.25)"><tspan class="cls-13">Ge</tspan><tspan x="38.19" y="0">t </tspan><tspan class="cls-13" x="56.53" y="0">Estimat</tspan><tspan x="156.99" y="0">e</tspan></text></g></g></svg>