<svg xmlns="http://www.w3.org/2000/svg" xmlns:xlink="http://www.w3.org/1999/xlink" viewBox="0 0 365 270"><defs><style>.cls-1{isolation:isolate;}.cls-2{fill:#f4f4f4;}.cls-3{font-size:28px;font-family:Poppins-Regular, Poppins;}.cls-4{fill:#bfb8b8;}.cls-5{fill:#ddac9e;}.cls-6{fill:#e8c8ba;}.cls-7{mix-blend-mode:multiply;}.cls-8{fill:url(#linear-gradient);}.cls-9{fill:#300901;}.cls-10{fill:#662619;}.cls-11{fill:#3357bc;}.cls-12{fill:#4d87db;}.cls-13{fill:#232121;}.cls-14{fill:#d8d8d8;}</style><linearGradient id="linear-gradient" x1="259.22" y1="92.06" x2="272.76" y2="92.06" gradientTransform="translate(-5.6 8.63) rotate(-1.81)" gradientUnits="userSpaceOnUse"><stop offset="0" stop-color="#fff"/><stop offset="0.64" stop-color="#c6c0b9"/></linearGradient></defs><g class="cls-1"><g id="Layer_1" data-name="Layer 1"><rect class="cls-2" width="365" height="270" rx="12.75"/><text class="cls-3" transform="translate(49.3 129.68)">Sign Out</text><path class="cls-4" d="M256.37,91.54c.45-.81,12-3.1,13.83-1.58s1.34,4.27.8,5.17-15.16,1.25-15.16,1.25Z"/><path class="cls-5" d="M257.84,82.38l-1.12,12.55s2.47,15.27,6.31,16.67,7.59-8.59,7.51-11.23-.92-17.22-.92-17.22Z"/><path class="cls-6" d="M270.58,101.5c-.09-2.65-.93-17.22-.93-17.22L264.52,84,262.41,113C266.22,114.29,270.66,104.13,270.58,101.5Z"/><g class="cls-7"><path class="cls-8" d="M256.53,80.15c-.88-2.26,10.18,3,13.17,5.07l-10.09,20c-1.86-.63-2.54-11-3.19-11.78C257.38,91.94,258.1,84.12,256.53,80.15Z"/></g><path class="cls-6" d="M270.64,73.45c-.82-5.41-2.51-9.81-10.25-8.73-9.67,1.34-8,7.15-7.24,13.77s5.8,13.2,10.74,12.62c3.76-.45,6.38-4.93,7.07-10a4.33,4.33,0,0,0,1.41-3.83C272.21,75.17,272.07,73.42,270.64,73.45Z"/><path class="cls-5" d="M252.75,75.76a2.08,2.08,0,0,0-.44,0c-1.5.29-1.16,2.06-.73,4.24.37,1.89,1.6,3.29,2.9,3.43,2,4.54,5.08,8,8.73,7.6a3.86,3.86,0,0,0,.49-.1L258.11,66C249.87,67.2,252.07,70.34,252.75,75.76Z"/><path class="cls-9" d="M259.59,62.28c-1.37-.51-6.36,2.18-7.77,3.92-1.24,1.53-1.46,3.38-1.19,6.26s1,3.51,1,3.51l1.19.13,1,.47-.44-2a5.47,5.47,0,0,1,1.45-4.74c2.08-2.36,5.72-1.78,5.72-1.78Z"/><path class="cls-10" d="M259.08,67.94c1.06,1,.38,1,2.91.53a6.87,6.87,0,0,1,6,1.76,11.83,11.83,0,0,1,1.3,3.65l1.62-.44,1,.38s.38-4.85-1.77-7.92c-1.63-2.31-2.56-3.1-5.77-3.55-1.45-.2-4.41-1.82-5.28.45C258.66,63.87,259.08,67.94,259.08,67.94Z"/><path class="cls-11" d="M265.69,59.23c-3.27-.59-11.59-.31-14.44,4S251,73.8,251,73.8c2.28-2,14.7-5.63,21.08-2.26C271.64,64.52,269,59.82,265.69,59.23Zm-9.92,8.7a3.46,3.46,0,0,1,2.67-3.64c3-1,5.32,2.08,5.32,2.08Z"/><path class="cls-12" d="M265.7,59.26a21.52,21.52,0,0,0-6,0,18.3,18.3,0,0,0-.86,5c2.83-.59,4.91,2.19,4.91,2.19l-4.75.93c.07.56.17,1.15.29,1.73s.27,1.13.44,1.68c4.26-.79,9.09-.91,12.35.82C271.65,64.55,269,59.85,265.7,59.26Z"/><path class="cls-4" d="M242.55,97.52c-3.71,1.31-8.25,9.81-15.43,24.89-1.19,2.49-11.67,23.46-4.55,26.56,1.67-2.79,8.47-17.22,12.45-15.55,2-4.51,10-18.6,11.24-18.91s8.55,11.9,8.24,8.87S242.55,97.52,242.55,97.52Z"/><path class="cls-13" d="M275,163.07c-.94,13.68-4.61,24.91-16.81,30.89-5.29,2.6-20.1,2.72-26.09,1.2-17-4.31-28-17-26.56-37.34.88-12.73,9.18-23.67,18.67-29.67,5.69-3.6,15.27-4.93,27.76-3.35C270.65,127.16,276.45,142.7,275,163.07Z"/><path d="M277.53,165.23c-1.23,17.83-12.44,30.74-30.7,29.48-19-1.31-27.71-15.6-26.48-33.43s15-31.41,30.82-30.32S278.76,147.39,277.53,165.23Z"/><path class="cls-13" d="M267,164.64c-1.54,11.5-10.84,19.75-20.79,18.43s-16.76-11.73-15.23-23.24,10.85-19.76,20.79-18.43S268.5,153.13,267,164.64Z"/><path d="M262.78,164c-1,7.61-7.18,13.08-13.76,12.2s-11.1-7.77-10.08-15.39,7.18-13.08,13.76-12.2S263.8,156.34,262.78,164Z"/><path d="M237.15,157.7c-.18,2.57-2.81,4.48-5.87,4.27s-5.41-2.47-5.23-5,2.8-4.48,5.87-4.27S237.33,155.13,237.15,157.7Z"/><path d="M244,148.11c-1.32,2.21-4.54,2.72-7.17,1.14s-3.7-4.65-2.37-6.86,4.53-2.72,7.17-1.14S245.37,145.9,244,148.11Z"/><path d="M237.5,169.61c.77,2.46-1,5.2-3.91,6.12s-5.93-.33-6.71-2.78,1-5.2,3.91-6.12S236.73,167.15,237.5,169.61Z"/><path d="M244.75,177.51c1.84,1.81,1.57,5.05-.58,7.24s-5.4,2.49-7.23.68-1.58-5.05.58-7.24S242.92,175.7,244.75,177.51Z"/><path d="M253.77,177.77c2.58-.07,4.73,2.37,4.8,5.44s-1.94,5.62-4.52,5.69-4.73-2.38-4.81-5.45S251.19,177.84,253.77,177.77Z"/><path d="M260.63,173.5c2.09-1.5,5.24-.69,7,1.8s1.55,5.74-.54,7.24-5.25.7-7-1.8S258.53,175,260.63,173.5Z"/><path d="M263.77,166c.62-2.51,3.54-3.93,6.52-3.2s4.9,3.37,4.28,5.88-3.55,3.93-6.53,3.18S263.14,168.51,263.77,166Z"/><path d="M264.17,156.64c-.69-2.48,1.15-5.16,4.11-6s5.92.52,6.61,3-1.15,5.17-4.11,6S264.86,159.12,264.17,156.64Z"/><path d="M259.71,149.9c-2-1.63-2-4.89-.09-7.26s5.15-3,7.14-1.35,2,4.89.08,7.26S261.7,151.53,259.71,149.9Z"/><path d="M252.52,146.33c-2.58,0-4.66-2.5-4.65-5.57s2.1-5.56,4.67-5.56,4.66,2.51,4.66,5.58S255.1,146.34,252.52,146.33Z"/><path class="cls-13" d="M287.79,268l5.14-.12s6-1.44,2-6.94c-2.95-4.11-2.48-5.65-4.06-8.86-1-1.93-8.11-.74-8.11-.74s.92,6.2.33,8.28C280.53,268.68,287.79,268,287.79,268Z"/><path class="cls-12" d="M279.77,141.77c2.51,5,4.08,14.86,6,30.65.85,7,2.47,24.45,3.9,30,5,19.49,3.57,53.67,3.57,53.67l-10.53.48s-9.68-48.92-10.56-52.44-7-28.57-7-28.57-2.87,29.6-1.12,33.11,3.06,44.16,3.06,44.16l-11.21-.08s-3.87-40.74-4.75-49.53-1.54-58.78-1.54-58.78Z"/><path d="M259.34,251.16c-.86,3.46-4.45,6.4-7,7.26s-5.79,2.57-4.93,6,7.66,1.91,7.66,1.91,8.5-2.75,11.09-2.75,2.59-7.21,1.73-10.66S259.34,251.16,259.34,251.16Z"/><path class="cls-11" d="M247.76,206.64c1.4,22,8.27,48.3,8.27,48.3l13.37-.46s-.23-36-1.84-44.49c-1.51-8-1.62-25.12-1.62-25.12s4,20,4.84,23.51,11,48.47,11,48.47l8.79-.84c-.67-6.67-4.77-38.72-7.84-52.39-1.79-8-6.45-44.87-10-57.47l-26.81.23S247.2,197.82,247.76,206.64Z"/><path class="cls-4" d="M259.31,100.87a35.6,35.6,0,0,1-3.59-8s-1.08.23-9,2.58c-4.07,1.21-6.31,3.17-6.64,6.11s7.48,12.29,8.14,15.55-2.27,25.82.66,29.68c2,2.59,4.33-1.45,15.41-1.29,0-12.05-.34-34.79-1-41.31C263.21,103.74,260.25,102.32,259.31,100.87Z"/><path class="cls-14" d="M271.15,92.18s3.62-.13,11.07,2.41c3,1,2.55,1.8,2.87,4.73s-2.69,20.61-3.35,23.86-5.86,13.87-5.44,19.69c.23,3.25-8.76,2.1-14.9,2.15,0-12.05-1-39.46,1.5-41.16A20.18,20.18,0,0,0,271.15,92.18Z"/><path class="cls-4" d="M270.32,90l3.46,2.63-2.84,9.22s-4.19-3-4-3.26C270.69,93.78,270.32,90,270.32,90Z"/><path class="cls-14" d="M256.5,91.27l-3,2.42,1.75,7.62s3.3-3.21,3.12-3.75C257.17,94,256.5,91.27,256.5,91.27Z"/><path class="cls-11" d="M248.78,94.77c-.72,3.23.77,14,1.85,14.71,2.71,1.81,19.74.72,19.74.72l2.6,37.33s-24.9,2.95-25.62,2.15c-1.8-2-2.77-6.81-2.77-9.68s.49-20.47.49-20.47,1.17-17.66-.21-23.29C247.52,94.51,248.78,94.77,248.78,94.77Z"/><path class="cls-12" d="M277.05,93s-3.08,15.2-3.8,16.27-4.49.9-4.49.9S267.5,136.68,272.7,148c1,2.19,7.37-1,7.37-1s3.39-7.54,2.69-31.59c0-1.44-5.39-4.67-5.39-6.11s3.44-15.37,3.44-15.37Z"/><path class="cls-6" d="M272.53,127.61a118.58,118.58,0,0,1-21.64.74,28.73,28.73,0,0,1-4.07-1.7c-4.2-2.15-4.72-.8-4.72-.8l2.81,2-7.7.29a12.15,12.15,0,0,0-2.81,1.13c-1.32,1.33-1.92,3.52,2.43,5.22,5.78,2.28,8.95.25,14.23.7,6.11.51,15.15,1.82,18.08,1.77S272.53,127.61,272.53,127.61Z"/><path class="cls-4" d="M283.6,95c4.66,1.8,6.28,14.29,6,22s-1.37,15-3.47,19c-1.92,3.59-18.85,3.59-18.85,3.59l-.48-11.07s10.06-1.68,10.53-2.39c2.4-3.59,3.41-11.06,3.24-12.39S283.6,95,283.6,95Z"/></g></g></svg>