<svg xmlns="http://www.w3.org/2000/svg" xmlns:xlink="http://www.w3.org/1999/xlink" viewBox="0 0 365 270"><defs><style>.cls-1{isolation:isolate;}.cls-2{fill:#f4f4f4;}.cls-3{font-size:28px;font-family:Poppins-Regular, Poppins;}.cls-4{fill:#c14e00;}.cls-5{fill:#bfb8b8;}.cls-6{fill:#232121;}.cls-7{fill:#d8d8d8;}.cls-8{fill:#3357bc;}.cls-9{fill:#4d87db;}.cls-10,.cls-15{mix-blend-mode:multiply;}.cls-10{fill:url(#linear-gradient);}.cls-11{fill:#ddac9e;}.cls-12{fill:#e8c8ba;}.cls-13{fill:#300901;}.cls-14{fill:#662619;}.cls-15{fill:url(#linear-gradient-2);}.cls-16{fill:#e26713;}</style><linearGradient id="linear-gradient" x1="314.1" y1="222.96" x2="323.04" y2="154.65" gradientUnits="userSpaceOnUse"><stop offset="0.12" stop-color="#fff"/><stop offset="0.23" stop-color="#fbfbfb"/><stop offset="0.34" stop-color="#eee"/><stop offset="0.46" stop-color="#d9d9d9"/><stop offset="0.58" stop-color="#bcbcbc"/><stop offset="0.7" stop-color="#969696"/><stop offset="0.82" stop-color="#696969"/><stop offset="0.83" stop-color="#646464"/></linearGradient><linearGradient id="linear-gradient-2" x1="43.29" y1="211.26" x2="76.75" y2="178.76" gradientUnits="userSpaceOnUse"><stop offset="0.12" stop-color="#fff"/><stop offset="0.2" stop-color="#fbfbfb"/><stop offset="0.28" stop-color="#eee"/><stop offset="0.36" stop-color="#d9d9d9"/><stop offset="0.44" stop-color="#bcbcbc"/><stop offset="0.52" stop-color="#969696"/><stop offset="0.61" stop-color="#696969"/><stop offset="0.62" stop-color="#646464"/></linearGradient></defs><g class="cls-1"><g id="Layer_1" data-name="Layer 1"><rect class="cls-2" width="365" height="270" rx="12.75"/><text class="cls-3" transform="translate(122.3 122.68)">View Jobs</text><path class="cls-4" d="M87,197c2.35.11,8.82-2.73,8.69-3a3.4,3.4,0,0,0-3.43-1.42c1.2-.65,1.8-1.42,2.48-1.61s2.62-.28,2.59-.89-2.34-2-4.66-.59-7.4,3.64-7.4,3.64Z"/><path class="cls-5" d="M65.27,184.43c2.42,1.6,7.39,9,11.23,10.38,1.14.4,11.6-2.93,11.6-2.93l.5,6.75s-10.73,3.54-12.85,3.05-16.9-7.41-16.9-7.41Z"/><polygon class="cls-6" points="109.44 147.07 111.05 146.68 118.06 175.42 116.45 175.81 109.44 147.07 109.44 147.07"/><path class="cls-5" d="M294.27,191.17c-8.29-3.22-47.86-8.68-47.86-8.68l-37.47-22.83c-35-10.58-73.17-2.41-79.38.58-3,1.46-17,16.18-23.85,21.7,0,0-12.82,2-14.35,12.91C90.66,200,90,210.61,88.14,219c-2.76,12.66,8.29,12.43,8.29,12.43l5.79.06A23.89,23.89,0,0,1,102,228a22.43,22.43,0,1,1,44.51,4c30.9-.11,54.2,0,87,.24a17.2,17.2,0,0,1-.35-4.21A22.44,22.44,0,0,1,278,228a22.09,22.09,0,0,1-.58,5.05c12.38,0,17.66,0,18.76-.21,6-.92,8.85-6.1,9.77-10.7C307.38,206,294.27,191.17,294.27,191.17ZM120.8,184.45S131.63,169.36,135,167.2c7.5-4.77,33.13-4.36,33.13-4.36l4.43,21.69Zm58.57.08s-3.69-14.68-5.26-21.93c-.09-.41,16.55,0,29.21,3.19,7,1.75,10.59,4.89,14.44,7.26,16.12,9.91,16.3,11.35,16.3,11.35Z"/><path class="cls-6" d="M105.3,229.18a18.64,18.64,0,1,1,18.64,18.63A18.64,18.64,0,0,1,105.3,229.18Z"/><path class="cls-5" d="M110.88,229.18a13.06,13.06,0,0,1,13.06-13.06h0A13.06,13.06,0,0,1,137,229.18h0a13.06,13.06,0,0,1-13.06,13h0a13.06,13.06,0,0,1-13.06-13Zm2,0a11.11,11.11,0,0,0,11.1,11.09h0A11.11,11.11,0,0,0,135,229.18h0a11.13,11.13,0,0,0-11.1-11.11h0a11.13,11.13,0,0,0-11.1,11.11Z"/><path class="cls-5" d="M135.58,231.77c-4.74-.28-8.26-1.34-8.26-2.59s3.53-2.32,8.27-2.6a12,12,0,0,0-1.59-3.81c-3.55,3.15-6.78,4.9-7.67,4s.86-4.12,4-7.67a11.83,11.83,0,0,0-2.45-1.19,11.05,11.05,0,0,0-1.36-.39c-.28,4.74-1.33,8.26-2.59,8.26s-2.31-3.52-2.59-8.26a11.83,11.83,0,0,0-3.81,1.58c3.15,3.55,4.9,6.79,4,7.67s-4.13-.86-7.68-4a12.72,12.72,0,0,0-1.19,2.46,11.36,11.36,0,0,0-.38,1.35c4.74.28,8.26,1.34,8.26,2.6s-3.52,2.31-8.27,2.59a12.28,12.28,0,0,0,1.59,3.81c3.55-3.15,6.78-4.9,7.67-4s-.86,4.12-4,7.67a11.35,11.35,0,0,0,2.45,1.19,11.05,11.05,0,0,0,1.36.39c.28-4.74,1.33-8.26,2.59-8.26s2.31,3.52,2.59,8.26a11.92,11.92,0,0,0,3.81-1.58c-3.15-3.55-4.9-6.79-4-7.67s4.13.86,7.68,4a12.18,12.18,0,0,0,1.19-2.46A11.36,11.36,0,0,0,135.58,231.77Z"/><path class="cls-6" d="M237,229.18a18.64,18.64,0,1,1,18.63,18.63A18.63,18.63,0,0,1,237,229.18Z"/><path class="cls-5" d="M242.54,229.18a13.06,13.06,0,0,1,13.06-13.06h0a13.06,13.06,0,0,1,13.06,13.06h0a13.06,13.06,0,0,1-13.06,13h0a13.06,13.06,0,0,1-13.06-13Zm2,0a11.1,11.1,0,0,0,11.1,11.09h0a11.1,11.1,0,0,0,11.1-11.09h0a11.13,11.13,0,0,0-11.1-11.11h0a11.13,11.13,0,0,0-11.1,11.11Z"/><path class="cls-5" d="M267.24,231.77c-4.73-.28-8.26-1.34-8.26-2.59s3.53-2.32,8.27-2.6a12.25,12.25,0,0,0-1.58-3.81c-3.55,3.15-6.79,4.9-7.68,4s.86-4.12,4-7.67a11.83,11.83,0,0,0-2.45-1.19,11.05,11.05,0,0,0-1.36-.39c-.28,4.74-1.33,8.26-2.59,8.26s-2.31-3.52-2.59-8.26a11.92,11.92,0,0,0-3.81,1.58c3.15,3.55,4.9,6.79,4,7.67s-4.12-.86-7.67-4a12.2,12.2,0,0,0-1.2,2.46,13.63,13.63,0,0,0-.38,1.35c4.74.28,8.26,1.34,8.26,2.6s-3.52,2.31-8.26,2.59a12,12,0,0,0,1.58,3.81c3.55-3.15,6.78-4.9,7.67-4s-.86,4.12-4,7.67a11.35,11.35,0,0,0,2.45,1.19,11.58,11.58,0,0,0,1.36.39c.28-4.74,1.33-8.26,2.59-8.26s2.31,3.52,2.59,8.26a11.83,11.83,0,0,0,3.81-1.58c-3.15-3.55-4.9-6.79-4-7.67s4.13.86,7.68,4a11.67,11.67,0,0,0,1.19-2.46A11.36,11.36,0,0,0,267.24,231.77Z"/><path class="cls-7" d="M95.61,187.09c2.24.17,1.48,0,4.14.17l4.71.17c2.65.12,2.91,1.25.57,2.51l-11.79,6.25c-2.34,1.26-2.38,1-2-1.23l.89-4.22C92.5,188.64,93.51,186.93,95.61,187.09Z"/><path class="cls-7" d="M105.07,216.59H88.67c-.16.77-.34,1.58-.53,2.44-1.13,5.21.07,8.23,1.88,10h12c0-.34,0-.67,0-1A22.3,22.3,0,0,1,105.07,216.59Z"/><path class="cls-7" d="M236.27,216.59H143.69A22.3,22.3,0,0,1,146.81,228c0,.35,0,.68,0,1h86.38c0-.31,0-.65,0-1A22.21,22.21,0,0,1,236.27,216.59Z"/><path class="cls-7" d="M305.78,216.59h-30.9A22.21,22.21,0,0,1,278,228c0,.35,0,.68,0,1h24.86a15.71,15.71,0,0,0,3.12-6.88A19.23,19.23,0,0,0,305.78,216.59Z"/><path class="cls-7" d="M194.21,191a1.28,1.28,0,0,1-1.28,1.28H182.71a1.28,1.28,0,0,1-1.28-1.28h0a1.28,1.28,0,0,1,1.28-1.27h10.22a1.27,1.27,0,0,1,1.28,1.27Z"/><path class="cls-7" d="M239.34,184.91c0,3.38-3.05,6.13-6.81,6.13-1.87,0-2-2.75-2-6.13s.17-6.13,2-6.13C236.29,178.78,239.34,181.52,239.34,184.91Z"/><path class="cls-7" d="M299.21,199.09s-10.15-.48-14.06-1.54c-4.72-1.27-7.79-3.32-4.47-4.34s13.8.51,13.8.51Z"/><path class="cls-6" d="M287.63,187.93l-41.22-6.13c-2.56,3.07.68,5.79.68,5.79l46.84,3.58Z"/><path class="cls-5" d="M242.92,181.21l33.46-49.31s5.62-2,4.6,2-34.74,55.7-34.74,55.7Z"/><path class="cls-5" d="M130.38,160.73c-7.86-11.61-22.63-24.83-44.13-22.12-.46,1.38,2.27,4.29,3.55,4.43a66.28,66.28,0,0,1,14.67,2.74c9.25,3.1,15.16,10.94,19.38,21.18C126.41,165.27,130.38,160.73,130.38,160.73Z"/><path d="M322.3,232.1c-.59,1.64-.16,3.4.06,5.62s.75,3.88-1.48,4.39-10.5.55-10.5.55-4.43-1,.19-3c3.58-1.55,6.24-3.5,5.93-7.7C316.44,231.15,322.3,232.1,322.3,232.1Z"/><path class="cls-8" d="M311.2,179c.19,8.18.9,31,1,32.13,1.32,11,2.63,26.08,2.63,26.08l6.75-.16s2.64-18.9.2-26.76c-.74-2.38,2.79-25.77,2.79-25.77Z"/><path class="cls-6" d="M328.84,236.36c.21,1.85,1.22,4.33.63,6.86-.21.88-1.81,1.25-3.12,1.56-.54.13-2.42,1.4-3.38,1.76-3.51,1.31-5.2.35-5.85,0s-.87-1.37.7-2.86c1.34-1.27,3.26-2,3.79-3.16s.25-4.93.25-4.93Z"/><path class="cls-9" d="M311.88,177.55c.19,8.18,1.75,17.46,5,34.17,1.07,5.55,4.24,29.45,4.24,29.45l8.73.24s1-15.75-1.85-29.55c-.31-1.53.35-15,1.14-25.53.47-6.23-3.44-13-3.44-13Z"/><path class="cls-10" d="M327.35,178.14l-15.2,32.11s-1-22.49-.51-24.87S327.35,178.14,327.35,178.14Z"/><path class="cls-11" d="M267.23,182c.55.47,3.31-.44,5.19-1.07.78-.26,7,.24,7.27.09.48-.24-1.66-3.11-1.66-3.11a33.42,33.42,0,0,1-6,0c-1.8-.21-3.23-1.13-3.56-1.06a38.39,38.39,0,0,0-3.87,1.53Z"/><path class="cls-12" d="M278.07,176.15c-1.51,0-6.21,1.8-7,1.24a5.88,5.88,0,0,0-3-.82c-1.17-.12-1.81-1.94-2.07-1.62s-.45.38.06,1.27a6.1,6.1,0,0,0,1,1.29s4,1.19,4.34,1.27,6.75-.82,7-.76S278.07,176.15,278.07,176.15Z"/><path class="cls-9" d="M293.16,162.78c-2.11,1.61-5.6,9.85-9.11,11.15-3.27,1.2-11.37,3.32-11.37,3.32l2.94,4.85s3.87-.19,6.35-.56a22.55,22.55,0,0,0,7.24-2.28c1.76-.95,9.81-7.48,9.61-9.78S293.16,162.78,293.16,162.78Z"/><path class="cls-11" d="M295.78,158.67l-2.45-.31a7.63,7.63,0,0,1-3.89-1.81c-.79-2.23-2.6-4.84-6.36-7.53-5.46-3.93-11.16,4.37-10,8.75a6.57,6.57,0,0,0-.18,1.38c.72,1.95,2.73,2.88,4.93,4.46l.12.1a16.85,16.85,0,0,1,1.52,2.54.44.44,0,0,0,.17.14c.38.27,1-.31,1.64-.74l.17.07c1.41.69,2.59,1.1,3.44.87a1.87,1.87,0,0,0,.34,0c1.12-.31,1.36-.55,2.4-1.78,1.69.64,5.91,2.87,5.91,2.87l.45-3.58h-.22Z"/><path class="cls-13" d="M279.89,147.15c-1.51-.16-3.32-.15-5.37,2.43s-3,4.43-2.57,7.43a2.21,2.21,0,0,0,1.65,1.85s.43-2.23,1.08-2.7.75,1.25,2.5,1.36c1.47.09,3.48.24,3.48.24s3-1.79,3.86-1.17,4.84-.29,4.84-.29a10.91,10.91,0,0,0-2.58-5.8C283.14,146,280.25,147.19,279.89,147.15Z"/><path class="cls-11" d="M282.09,157.39c.07-.72-.17-2.34.73-2.33s2.72,1.74,2.42,3.3S282.09,157.39,282.09,157.39Z"/><path class="cls-9" d="M269.48,162.06c-1.18,1.39-.42,2.47,1.28,2.45s1.83-.86,2.58-2a24.42,24.42,0,0,0,1.87-3.65Z"/><path class="cls-8" d="M288.3,152.06c-1.13.48-8.56,2.15-8.56,2.15s-1.91,4.83-3.61,5.83-5.69.34-7.15,2.89a20.55,20.55,0,0,1,2.56-4.6,8.79,8.79,0,0,1,.37-7.18c.81-1.79,3.09-3.94,4.43-4.31s4.37-1.73,7.22.18A18.24,18.24,0,0,1,288.3,152.06Z"/><path class="cls-9" d="M283.59,147.06a18.1,18.1,0,0,1,4.74,5c-.94.41-6.33,1.65-8,2-.59-2.65-2.25-6-4.26-7.12l.33-.13C277.71,146.52,280.74,145.15,283.59,147.06Z"/><polygon class="cls-9" points="288.82 165.37 288.39 167.24 291.55 169.87 292.58 166.29 288.82 165.37"/><path class="cls-9" d="M292.11,158.53c4.11-.61,9.72-1,17.23,3.52,7.66,4.6,18,8.77,18.31,16.18.11,2.43-8.94,8.34-14.48,8.68-2.27.14-5.47-3-7.83-5.45S294.1,175.25,291.12,168C289.89,165,292.11,158.53,292.11,158.53Z"/><path class="cls-8" d="M291.16,157.7c0,1.41-1.66,9.2-1.66,9.2l4.52,3.16.5-12.16Z"/><polygon class="cls-6" points="262.77 172.21 263.63 171.66 275.24 189.69 274.38 190.24 262.77 172.21 262.77 172.21"/><path class="cls-6" d="M261,171.15a1,1,0,0,1,0-.24h0a1.59,1.59,0,0,1,1.35-1.57h0l.24,0h0a1.59,1.59,0,0,1,1.57,1.36h0l-.22,0,.22,0a1.94,1.94,0,0,1,0,.24h0a1.6,1.6,0,0,1-1.36,1.57h-.23a1.58,1.58,0,0,1-1.57-1.35Zm1.4-1.36a1.14,1.14,0,0,0-1,1.12h0a1.11,1.11,0,0,0,0,.17h0a1.12,1.12,0,0,0,1.12,1h.17a1.13,1.13,0,0,0,1-1.12h0a.91.91,0,0,0,0-.17h0a1.14,1.14,0,0,0-1.12-1h-.17Z"/><path class="cls-12" d="M264.55,178.23c-.48.6-.38,1.35.29,1.32-.22.57.34,1.51.94,1.36-.25.47.31,1,.9.94.17.47.5.58,1,.42.72-.21,2.08-.61,2.08-1.2s-1.95.24-1.95.24,1.42-.43,1.56-1.07c0,0,.29-.59-.25-.52s-2.32.44-2.32.44,2.13-.81,2.08-1c-.08-.45-.11-.84-3,.07,1.81-.64,2.16-.88,2-1.38S264.55,178.23,264.55,178.23Z"/><path class="cls-8" d="M305.42,181.46c2.37,2.4,5.57,5.59,7.84,5.45,1.77-.11,6-1.77,8.09-2.72a9.86,9.86,0,0,0-.68-2.64c-2.64-7.32-20-14.73-23.76-16.78l-5.46,3.75C294.63,175.42,303.11,179.12,305.42,181.46Z"/><path class="cls-12" d="M267.76,188.58c.21-.36,3.63-1.38,3.81-1.47s1.38-.69,2.33-1.23c-1.06-.24-2.6-.75-2.13-1a17.36,17.36,0,0,1,4.38.35l5.45,0c-2.17,2.69.49,2.09-1.33,3.35-.36.25-6,1.69-6.55,1.76s-3.68.77-4,.29c-.12-.18,1.61-.47,2.33-.58-.9.13-3.55.49-3.45.13s3.32-1.12,3.32-1.12a25.79,25.79,0,0,1-3.14.54c-1,0-1-.29-.35-.45s3.22-.94,3.22-.94-1.21.29-2.38.54S267.55,188.94,267.76,188.58Z"/><path class="cls-8" d="M300,161a10.23,10.23,0,0,1,.86,4.82c-.83,5.55-4.16,14.24-6.45,16.28-4.22,3.75-9.46,5.49-13.42,6.52-2.15.55-3.88-4.08-3.88-4.08s11.08-7.73,11.8-8.95c2.05-3.45,3.32-12.53,4.43-14.16A4.23,4.23,0,0,1,300,161Z"/><path class="cls-11" d="M65.79,187.66a49.88,49.88,0,0,0,4.84-4.39l-3.32-4.44s-7.09,4.21-7.85,4.87S65.79,187.66,65.79,187.66Z"/><path class="cls-12" d="M76.84,170.32c-1.92-4.06-12.28-6-13.28.77-1.81,12.33,5.89,14,5.89,14,2.59-.06,3.24.22,5.11-.51.92-.36,1.71-1.71,2.26-3.47.82-.18,1.68-.48,1.59-1.06a15.61,15.61,0,0,1-.92-2C77.88,175.24,77.74,172.23,76.84,170.32Z"/><path class="cls-11" d="M71.3,167.25c-3.44-.69-7.29-.11-7.88,3.86-1.81,12.34,5.89,14,5.89,14l3.06,0C67.49,182.07,70.05,172.13,71.3,167.25Z"/><path class="cls-13" d="M64.43,167.53a7.21,7.21,0,0,1,6.41-2.25c3.15.31,4.18,1.05,6,3.38,1,1.19.69,3.52.69,3.52a5.44,5.44,0,0,0-1.95-.2c-.77.13-1.75-.39-2.88.93a7,7,0,0,0-1.31,2.45s-3.31.89-3.47,1.94S64,181,64,181a23.24,23.24,0,0,1-2.4-6.07C60.77,169.21,64.22,167.81,64.43,167.53Z"/><path class="cls-11" d="M69.7,176c-.47-.53-.82-1.33-1.52-.78s-1.75,3.52-.6,4.58S69.7,176,69.7,176Z"/><path class="cls-14" d="M72.81,172.9c1.12-1.32,2.11-.79,2.88-.93a5.6,5.6,0,0,1,2,.21s.27-2.33-.69-3.53c-1.87-2.33-2.5-3-5.65-3.26-1.27-.12-1.35,5.24-.41,10.11.89-.38.61-.14.61-.14A7,7,0,0,1,72.81,172.9Z"/><path d="M23.63,230.29c.74-1.65,9.33-2.8,19.85-2.63,10.14.19,18.53,1.55,19.83,3.15A2.68,2.68,0,0,1,64.46,233l.12,7.12a2.49,2.49,0,0,1-1.76,2.57c-2.42,1.22-10,2.44-18.89,2.29s-16.47-2-19.16-3.09a2.82,2.82,0,0,1-1.85-2.5l-.13-7.12A2.52,2.52,0,0,1,23.63,230.29Z"/><path class="cls-6" d="M24.77,241.87a2.82,2.82,0,0,1-1.85-2.5l-.13-7.12a2.52,2.52,0,0,1,.84-2c.74-1.65,9.33-2.8,19.85-2.63l.45,0,.3,17.28h-.3C35.08,244.81,27.46,243,24.77,241.87Z"/><path d="M26,230.87c0,1.22,7.92,2.35,17.65,2.52s17.59-.68,17.57-1.91-7.92-2.35-17.65-2.52S26,229.65,26,230.87Z"/><path class="cls-5" d="M29.54,231.11c0,.84,6.32,1.63,14.09,1.77s14-.44,14-1.28-6.32-1.63-14.09-1.77S29.53,230.27,29.54,231.11Z"/><path d="M24,217.92c.74-1.65,9.33-2.81,19.85-2.63,10.14.18,18.53,1.54,19.83,3.14a2.68,2.68,0,0,1,1.15,2.17l.12,7.13a2.5,2.5,0,0,1-1.75,2.57c-2.43,1.21-10,2.44-18.9,2.28s-16.47-2-19.16-3.09A2.8,2.8,0,0,1,23.28,227l-.12-7.13A2.48,2.48,0,0,1,24,217.92Z"/><path class="cls-6" d="M25.13,229.49A2.8,2.8,0,0,1,23.28,227l-.12-7.13a2.48,2.48,0,0,1,.83-2c.74-1.65,9.33-2.81,19.85-2.63h.45l.31,17.29h-.31C35.44,232.43,27.82,230.63,25.13,229.49Z"/><path d="M26.35,218.49c0,1.23,7.93,2.35,17.65,2.52s17.59-.68,17.57-1.9-7.92-2.35-17.65-2.52S26.33,217.27,26.35,218.49Z"/><path class="cls-5" d="M29.9,218.73c0,.84,6.32,1.64,14.09,1.77s14-.43,14-1.27-6.33-1.64-14.1-1.77S29.89,217.89,29.9,218.73Z"/><path d="M62.8,237.35c-.3,2.86-.29,6.46,1.76,6.31s2.72-1.49,5.58-1.19,11.17,1.22,11-.83a2.84,2.84,0,0,0-3-2.86c-3.6-.21-6.9-5.54-8.19-5.06C68.24,234.37,62.8,237.35,62.8,237.35Z"/><path class="cls-6" d="M57.09,239c-.73,2.77-1.68,6.11.38,6.27s2.38-.29,5.16.44,9.59,1.39,10.19,0c.82-1.89-1-3-2.51-3.28-3.53-.74-6.17-5.74-7.53-5.46A46.29,46.29,0,0,0,57.09,239Z"/><path class="cls-8" d="M57,207.93c8.25,2.26,19.31,3.49,21.73,6.46,2.13,2.61,1.51,5-.41,11.55-1.64,5.62-2.07,6.74-2.62,11.14-.32,2.59-11,1.5-11.89.63C60.15,234.09,68.08,222,70,218.93c1.27-2.06-14.25-1.78-16.49-.69Z"/><path class="cls-7" d="M62.29,181.53c-2.71,1.06-15.15,4.53-17.3,29.93,0,0,17.22-9.73,19.47-10.13.29-3.24,2.85-4.05,1.63-12.52C65.53,184.85,62.29,181.53,62.29,181.53Z"/><path class="cls-9" d="M49.3,198c.09-2.65,4.9-10.2,8-12.58,4.83-3.66,8.51.44,9,5.08.76,6.57-.48,9-.48,9l-1.18.73s3.78-10.86-1.31-14.3c-1.73-1.17-7.63-1.45-11.77,10.49C50.44,200,49.3,198,49.3,198Z"/><path class="cls-9" d="M50.64,190c-.88,1.77-9.79,19.8-9.79,24.45s4.32,6.78,9.86,6.56,14-.48,14-.48-4.47,7.76-8.05,15.05c-1.5,3.06.14,4.81.14,4.81L68,240.24a100.93,100.93,0,0,0,7.36-17.88c1.84-5.73,1-8.72-4.33-9.9-5.48-1.21-11.55-2.68-11.55-2.68L66,199.37s-10.41,2.43-11.3-6.65l-2-1.32Z"/><path class="cls-8" d="M66,199.37s-7.44,1.72-10.27-3.25c-3.51,6.07-3.85,12.71-2.77,13.25.9.45,5.18.9,8.52.76a1,1,0,0,1-.36-1.75Z"/><path class="cls-15" d="M57.86,186.58,47,197.75s-6.74,15.13-6.19,17.19,27.05-17,27.05-17Z"/><path class="cls-16" d="M89.92,196.43c.81-.67,4.1-4.49,4.71-4.39s.3.84-.09,1.7-.05.6-.05.6a17.2,17.2,0,0,1,4.24-.21c1.31.07,2.23,1.14.15,1.29,1.05.22,1.9,1.13.32,1.53.9.26,1.2,1.08-.12,1.44.54.08.76.63.1,1.14a7.09,7.09,0,0,1-4.56,1.38c-2.7,0-4.59.11-4.59.11Z"/><path class="cls-4" d="M94.62,200.91a7.09,7.09,0,0,0,4.56-1.38c.66-.51.44-1.06-.1-1.14,1-.28,1.07-.83.61-1.19A21.89,21.89,0,0,1,90,198.46L90,201S91.92,200.9,94.62,200.91Z"/><path class="cls-7" d="M56.21,189.26a8.14,8.14,0,0,0,1.65,5.36c2.84,2.51,10.37,6.15,14.68,7.78s19-.34,19-.34l-1.64-6s-13-1.64-16.57-3.5-7-5.75-9.19-6.68C60,184.14,56.32,186.68,56.21,189.26Z"/></g></g></svg>